<?xml version="1.0" encoding="UTF-8"?>
<!DOCTYPE svg PUBLIC "-//W3C//DTD SVG 1.1//EN" "http://www.w3.org/Graphics/SVG/1.1/DTD/svg11.dtd">
<!-- Creator: CorelDRAW -->
<svg xmlns="http://www.w3.org/2000/svg" xml:space="preserve" width="1083px" height="1083px" style="shape-rendering:geometricPrecision; text-rendering:geometricPrecision; image-rendering:optimizeQuality; fill-rule:evenodd; clip-rule:evenodd"
viewBox="0 0 1083 1083"
 xmlns:xlink="http://www.w3.org/1999/xlink">
 <defs>
  <style type="text/css">
   <![CDATA[
    .str0 {stroke:none}
    .fil0 {fill:#F80E03}
   ]]>
  </style>
 </defs>
 <g id="Layer_x0020_1">
  <metadata id="CorelCorpID_0Corel-Layer"/>
  <path class="fil0 str0" d="M358.145 1070.42l370.414 0c-71.7183,-110.608 -132.927,-316.36 -132.927,-469.658 153.3,-0.00354223 359.051,61.2061 469.66,132.926l-0.00118074 -370.413c-132.87,76.4341 -341.723,125.971 -473.362,118.969 0,-153.298 61.2085,-359.049 132.927,-469.658l-370.414 0c71.7183,110.608 132.927,316.36 132.926,469.659 -153.298,0 -359.049,-61.2085 -469.658,-132.927l-0.00236148 370.414c132.874,-76.4341 341.726,-125.97 473.364,-118.97 0,153.298 -61.2085,359.049 -132.927,469.658z"/>
 </g>
</svg>
